<svg xmlns="http://www.w3.org/2000/svg" xmlns:xlink="http://www.w3.org/1999/xlink" width="24" height="48" viewBox="0 0 24 48"><defs><style>.a{fill:#fff;stroke:#707070;}.b{clip-path:url(#a);}.c{fill:#ffd464;stroke:rgba(0,0,0,0);stroke-miterlimit:10;}</style><clipPath id="a"><rect class="a" width="24" height="48" transform="translate(1579 188)"/></clipPath></defs><g class="b" transform="translate(-1579 -188)"><path class="c" d="M2184.421,92.721a2.122,2.122,0,0,1-.946-1.8l0-12.264h-.926l0,12.264a1.892,1.892,0,1,1-3.78,0V78.656h-1.668c-1.865,0-2.819-1.555-2.12-3.456l4.938-13.448c-1.821,1.6-3.1,4.63-4.467,8.239-.288.758-.562,1.48-.83,2.133a1.827,1.827,0,0,1-2.5,1.04,2.169,2.169,0,0,1-.945-2.752c.255-.619.514-1.3.785-2.013,1.807-4.79,4.541-12.028,11.06-12.028s9.25,7.238,11.062,12.023c.271.718.524,1.4.779,2.018a2.168,2.168,0,0,1-.968,2.7,1.821,1.821,0,0,1-2.48-.986c-.267-.653-.543-1.375-.828-2.134-1.363-3.608-2.644-6.64-4.465-8.237L2191.05,75.2c.7,1.9-.255,3.456-2.123,3.456h-1.67V90.92a2.126,2.126,0,0,1-.945,1.8,1.744,1.744,0,0,1-1.892,0ZM2183,55.058a5,5,0,1,1,4.367-7.5,4.961,4.961,0,0,1,0,5,5.058,5.058,0,0,1-4.37,2.5Z" transform="translate(-592 142.941)"/></g></svg>