<svg xmlns="http://www.w3.org/2000/svg" xmlns:xlink="http://www.w3.org/1999/xlink" width="24" height="48" viewBox="0 0 24 48">
  <defs>
    <style>
      .cls-1 {
        fill: #fff;
        stroke: #707070;
      }

      .cls-2 {
        clip-path: url(#clip-path);
      }

      .cls-3 {
        fill: #ffd464;
        stroke: rgba(0,0,0,0);
        stroke-miterlimit: 10;
      }
    </style>
    <clipPath id="clip-path">
      <rect id="&#x77E9;&#x5F62;_711" data-name="&#x77E9;&#x5F62; 711" class="cls-1" width="24" height="48" transform="translate(1426 188)"></rect>
    </clipPath>
  </defs>
  <g id="&#x7537;2" class="cls-2" transform="translate(-1426 -188)">
    <path id="&#x7537;2-2" data-name="&#x7537;2" class="cls-3" d="M2182.179,90.924V75.165h-1.054l0,15.759a2.16,2.16,0,0,1-4.3,0l0-17.835V62.778a5.908,5.908,0,0,0-1.508,4.015v4.529a2.16,2.16,0,0,1-4.311,0V66.817a10,10,0,0,1,3.041-7.267,10.76,10.76,0,0,1,7.5-3.086h.117a10.489,10.489,0,0,1,10.653,10.148v4.709a2.157,2.157,0,0,1-4.311,0V66.638a5.921,5.921,0,0,0-1.51-3.874v28.16a2.155,2.155,0,0,1-4.308,0ZM2176.6,50.145h0a5.049,5.049,0,1,1,5.05,4.949A5.049,5.049,0,0,1,2176.6,50.147Z" transform="translate(-744 143)"></path>
  </g>
</svg>